<svg width="80" height="11" viewBox="0 0 80 11" fill="none" xmlns="http://www.w3.org/2000/svg">
<g clip-path="url(#clip0_2801_589)">
<path d="M0.261171 7.34293C-0.023321 6.51382 -0.0479198 5.62559 0.131759 4.76975C0.220529 4.34826 0.357428 3.93601 0.545663 3.54536C0.722134 3.17886 0.943524 2.83293 1.20342 2.51527C1.46331 2.1976 1.7462 1.92414 2.06224 1.6733C2.37828 1.42246 2.72 1.20298 3.07935 1.0133C3.43871 0.82363 3.82213 0.661201 4.21251 0.529098C4.60609 0.395967 5.00983 0.291622 5.41893 0.214519C5.82802 0.137416 6.24085 0.0875561 6.65636 0.0633972C7.07187 0.0392384 7.47401 0.0418082 7.88203 0.0695652C8.27561 0.0968082 8.66759 0.14821 9.05369 0.227369C9.74566 0.368724 10.4237 0.59592 11.0259 0.957275C11.559 1.27751 12.0286 1.69386 12.4066 2.17601C12.843 2.7327 13.1494 3.37522 13.3168 4.0527C13.3253 4.08816 13.3339 4.12363 13.3419 4.15961C13.3601 4.24083 13.3767 4.32204 13.3911 4.40326C13.4328 4.63405 13.4622 4.86742 13.4804 5.10129C13.4997 5.35368 13.5098 5.60863 13.5136 5.86153C13.5157 6.00391 13.5253 6.15298 13.4681 6.28714C13.4371 6.36013 13.3874 6.42695 13.3211 6.47424C13.1954 6.56368 13.0296 6.57088 12.8788 6.57447C12.6072 6.58064 12.336 6.57087 12.0649 6.57036C11.8007 6.57036 11.536 6.56882 11.2719 6.56831C11.2189 6.56831 11.166 6.56831 11.113 6.56831C10.9986 6.56831 10.8842 6.56831 10.7697 6.56831C10.6574 6.56831 10.5446 6.56831 10.4323 6.56831C10.343 6.56831 10.2542 6.56831 10.1649 6.56831C10.0949 6.56831 10.0253 6.56831 9.95529 6.56831C9.90074 6.56831 9.8462 6.56831 9.79112 6.56831C9.74727 6.56831 9.70395 6.56831 9.6601 6.56831C9.6232 6.56831 9.58631 6.56831 9.54994 6.56831C9.51572 6.56831 9.48203 6.56831 9.4478 6.56831C9.41251 6.56831 9.37668 6.56831 9.34139 6.56831C9.30021 6.56831 9.25903 6.56831 9.21786 6.56831C9.16705 6.56831 9.11625 6.56831 9.06545 6.56831C9.00074 6.56831 8.93604 6.56831 8.87133 6.56831C8.78844 6.56831 8.70609 6.56831 8.6232 6.56831C8.51839 6.56831 8.41358 6.56831 8.30876 6.56831C8.17775 6.56831 8.0462 6.56831 7.91518 6.56831C7.75368 6.56831 7.59219 6.56831 7.43015 6.56831C7.2339 6.56831 7.03764 6.56831 6.84139 6.56831C6.60663 6.56831 6.37133 6.56831 6.13657 6.56831C5.8585 6.56831 5.58096 6.56831 5.30288 6.56831C4.97828 6.56831 4.65315 6.56831 4.32855 6.56831C3.9708 6.56831 3.61251 6.56831 3.25475 6.56831C2.92909 6.56831 2.70288 6.69527 2.57614 6.94405C2.46438 7.16457 2.49967 7.39742 2.62374 7.61073C3.68844 9.4391 6.69486 9.26485 8.73069 8.85826C8.98096 8.8084 9.22588 8.72924 9.45636 8.63209C9.65101 8.54984 9.83604 8.44756 10.0077 8.32676C10.3189 8.10728 10.5334 7.95564 11.0965 7.97003C11.1088 7.97003 11.1211 7.97003 11.1334 7.97003C11.4975 7.969 11.8622 7.97003 12.228 7.97003C12.5933 7.97003 12.8152 8.36531 12.6061 8.65368C11.8788 9.65498 10.6403 10.2975 9.38256 10.6044C5.98577 11.5111 1.41946 10.7159 0.260637 7.34139L0.261171 7.34293ZM2.58684 3.62966C2.28096 4.10153 2.63443 4.65513 3.19486 4.65513C9.52588 4.65513 7.63764 4.62634 10.4681 4.62583C10.6419 4.62583 10.813 4.56106 10.9269 4.43513C11.1409 4.19868 11.1179 3.84092 10.9259 3.51709C9.60449 1.28985 3.79967 1.60751 2.58684 3.62966Z" fill="white"/>
<path d="M14.9424 5.23232C14.9424 5.22923 14.9424 5.22563 14.9408 5.22255C14.9376 5.21432 14.9408 4.8612 14.9424 4.49727C14.951 2.26489 16.5708 0.481243 18.9472 0.35685C20.0061 0.301336 21.0472 0.402598 22.0713 0.662178C22.4986 0.770121 23.0216 0.962364 23.3563 1.08419C23.9558 1.30162 24.6521 1.44246 25.2938 1.39671C25.7553 1.36381 26.1831 1.279 26.5772 1.14279C27.2275 0.917645 27.8403 0.682224 28.551 0.542925C29.5301 0.350682 30.4831 0.293627 31.4098 0.371757C31.7991 0.404655 32.2055 0.50386 32.6285 0.669888C34.0023 1.20909 34.8954 2.45199 35.1061 3.83521C35.1488 4.11638 35.1649 4.37134 35.1649 4.68077C35.1654 6.68288 35.1654 8.68498 35.1649 10.6876C35.1649 10.8336 35.0403 10.9523 34.8868 10.9523C34.4922 10.9523 33.7745 10.9523 33.3922 10.9523C33.2472 10.9523 33.1344 10.8382 33.136 10.6994C33.136 10.5997 33.136 10.5 33.136 10.4003C33.136 10.2085 33.136 10.0168 33.136 9.82507C33.136 9.44162 33.136 9.05867 33.1355 8.67521C33.1355 7.90881 33.1355 7.1419 33.1355 6.3755C33.1355 4.66484 33.1863 3.67947 32.1189 2.8118C31.9579 2.68073 31.7793 2.57176 31.5863 2.489C30.7831 2.14461 29.8483 2.13793 28.9895 2.24587C28.8061 2.269 28.6472 2.29779 28.5146 2.3312C27.2275 2.65708 26.2103 3.54274 26.0205 4.82676C25.9997 4.96708 25.9874 5.10844 25.9804 5.25031C25.966 5.55821 25.9649 5.86662 25.9585 6.17503C25.9488 6.95685 25.9333 7.73919 25.9312 8.52152C25.9312 9.24475 25.9323 9.969 25.9221 10.6922C25.9189 10.8367 25.7954 10.9518 25.644 10.9518L24.2157 10.9528C24.0611 10.9528 23.936 10.8336 23.9371 10.6866C23.9371 10.6259 23.9382 10.5483 23.9392 10.4491C23.9483 9.74335 23.9499 9.0376 23.9446 8.33134C23.9392 7.6261 23.9248 6.92087 23.912 6.21512C23.8991 5.50937 23.9194 4.88278 23.7467 4.22844C23.6029 3.68461 23.2269 3.20246 22.7601 2.86269C22.2932 2.52292 21.7398 2.32503 21.166 2.24998C20.2815 2.13484 19.3424 2.13844 18.5125 2.49414C17.4959 2.93003 16.9724 3.50213 16.9724 5.06989C16.9724 5.66101 16.9767 6.25059 16.9793 6.84171C16.9825 7.66208 16.9857 8.48246 16.989 9.30283C16.9906 9.7639 16.9927 10.2255 16.9943 10.6866C16.9948 10.8336 16.8702 10.9528 16.7157 10.9528H15.2189C15.0649 10.9528 14.9403 10.8341 14.9403 10.6876L14.9435 5.2318L14.9424 5.23232Z" fill="white"/>
<path d="M51.7905 7.34293C51.506 6.51382 51.4814 5.62559 51.6611 4.76975C51.7498 4.34826 51.8867 3.93601 52.075 3.54536C52.2514 3.17886 52.4728 2.83293 52.7327 2.51527C52.9862 2.20583 53.2755 1.92414 53.5915 1.6733C53.9076 1.42246 54.2493 1.20298 54.6087 1.0133C54.968 0.82363 55.3514 0.661201 55.7418 0.529098C56.1354 0.395967 56.5391 0.291622 56.9482 0.214519C57.3573 0.137416 57.7701 0.0875561 58.1857 0.0633972C58.6012 0.0392384 59.0033 0.0418082 59.4113 0.0695652C59.8049 0.0968082 60.1969 0.14821 60.583 0.227369C61.275 0.368724 61.953 0.59592 62.5552 0.957275C63.0883 1.27751 63.5578 1.69386 63.9359 2.17601C64.3723 2.7327 64.6787 3.37522 64.8461 4.0527C64.8546 4.08816 64.8632 4.12363 64.8712 4.15961C64.8894 4.24083 64.906 4.32204 64.9204 4.40326C64.9621 4.63405 64.9915 4.86742 65.0097 5.10129C65.029 5.35368 65.0391 5.60863 65.0429 5.86153C65.045 6.00391 65.0546 6.15298 64.9974 6.28714C64.9664 6.36013 64.9167 6.42695 64.8504 6.47424C64.7247 6.56368 64.5589 6.57088 64.4081 6.57447C64.1365 6.58064 63.8653 6.57087 63.5942 6.57036C63.33 6.57036 63.0653 6.56882 62.8012 6.56831C62.7482 6.56831 62.6953 6.56831 62.6423 6.56831C62.5279 6.56831 62.4135 6.56831 62.299 6.56831C62.1867 6.56831 62.0739 6.56831 61.9616 6.56831C61.8723 6.56831 61.7835 6.56831 61.6942 6.56831C61.6242 6.56831 61.5546 6.56831 61.4846 6.56831C61.43 6.56831 61.3755 6.56831 61.3204 6.56831C61.2766 6.56831 61.2332 6.56831 61.1894 6.56831C61.1525 6.56831 61.1156 6.56831 61.0792 6.56831C61.045 6.56831 61.0113 6.56831 60.9771 6.56831C60.9418 6.56831 60.906 6.56831 60.8707 6.56831C60.8295 6.56831 60.7883 6.56831 60.7471 6.56831C60.6963 6.56831 60.6455 6.56831 60.5947 6.56831C60.53 6.56831 60.4653 6.56831 60.4006 6.56831C60.3177 6.56831 60.2354 6.56831 60.1525 6.56831C60.0477 6.56831 59.9429 6.56831 59.8381 6.56831C59.707 6.56831 59.5755 6.56831 59.4445 6.56831C59.283 6.56831 59.1215 6.56831 58.9595 6.56831C58.7632 6.56831 58.5669 6.56831 58.3707 6.56831C58.1359 6.56831 57.9006 6.56831 57.6659 6.56831C57.3878 6.56831 57.1103 6.56831 56.8322 6.56831C56.5076 6.56831 56.1824 6.56831 55.8578 6.56831C55.5001 6.56831 55.1418 6.56831 54.7841 6.56831C54.4584 6.56831 54.2322 6.69527 54.1054 6.94405C53.9937 7.16457 54.029 7.39742 54.153 7.61073C55.2177 9.4391 58.2242 9.26485 60.26 8.85826C60.5103 8.8084 60.7552 8.72924 60.9857 8.63209C61.1803 8.54984 61.3653 8.44756 61.537 8.32676C61.8482 8.10728 62.0627 7.95564 62.6258 7.97003C62.6381 7.97003 62.6504 7.97003 62.6627 7.97003C63.0268 7.969 63.3915 7.97003 63.7573 7.97003C64.1226 7.97003 64.3445 8.36531 64.1354 8.65368C63.4081 9.65498 62.1696 10.2975 60.9119 10.6044C57.5151 11.5111 52.9488 10.7159 51.7899 7.34139L51.7905 7.34293ZM54.1161 3.62966C53.8103 4.10153 54.1637 4.65513 54.7242 4.65513C61.0552 4.65513 59.1669 4.62634 61.9974 4.62583C62.1712 4.62583 62.3423 4.56106 62.4562 4.43513C62.6701 4.19868 62.6472 3.84092 62.4552 3.51709C61.1338 1.28985 55.329 1.60751 54.1161 3.62966Z" fill="white"/>
<path d="M66.7182 7.34293C66.4337 6.51382 66.4091 5.62559 66.5888 4.76975C66.6776 4.34826 66.8145 3.93601 67.0027 3.54536C67.1792 3.17886 67.4006 2.83293 67.6604 2.51527C67.9139 2.20583 68.2032 1.92414 68.5193 1.6733C68.8353 1.42246 69.177 1.20298 69.5364 1.0133C69.8957 0.82363 70.2792 0.661201 70.6695 0.529098C71.0631 0.395967 71.4669 0.291622 71.876 0.214519C72.2851 0.137416 72.6979 0.0875561 73.1134 0.0633972C73.5289 0.0392384 73.931 0.0418082 74.3391 0.0695652C74.7326 0.0968082 75.1246 0.14821 75.5107 0.227369C76.2027 0.368724 76.8808 0.59592 77.4829 0.957275C78.0161 1.27751 78.4856 1.69386 78.8637 2.17601C79.3 2.7327 79.6064 3.37522 79.7738 4.0527C79.7824 4.08816 79.7909 4.12363 79.799 4.15961C79.8171 4.24083 79.8337 4.32204 79.8482 4.40326C79.8899 4.63405 79.9193 4.86742 79.9375 5.10129C79.9567 5.35368 79.9669 5.60863 79.9706 5.86153C79.9728 6.00391 79.9824 6.15298 79.9252 6.28714C79.8941 6.36013 79.8444 6.42695 79.7781 6.47424C79.6524 6.56368 79.4867 6.57088 79.3359 6.57447C79.0642 6.58064 78.7931 6.57087 78.5219 6.57036C78.2578 6.57036 77.9931 6.56882 77.7289 6.56831C77.676 6.56831 77.623 6.56831 77.5701 6.56831C77.4556 6.56831 77.3412 6.56831 77.2268 6.56831C77.1145 6.56831 77.0016 6.56831 76.8893 6.56831C76.8 6.56831 76.7113 6.56831 76.622 6.56831C76.5519 6.56831 76.4824 6.56831 76.4123 6.56831C76.3578 6.56831 76.3032 6.56831 76.2481 6.56831C76.2043 6.56831 76.161 6.56831 76.1171 6.56831C76.0802 6.56831 76.0433 6.56831 76.007 6.56831C75.9728 6.56831 75.9391 6.56831 75.9048 6.56831C75.8695 6.56831 75.8337 6.56831 75.7984 6.56831C75.7572 6.56831 75.7161 6.56831 75.6749 6.56831C75.6241 6.56831 75.5733 6.56831 75.5225 6.56831C75.4578 6.56831 75.3931 6.56831 75.3284 6.56831C75.2455 6.56831 75.1631 6.56831 75.0802 6.56831C74.9754 6.56831 74.8706 6.56831 74.7658 6.56831C74.6348 6.56831 74.5032 6.56831 74.3722 6.56831C74.2107 6.56831 74.0492 6.56831 73.8872 6.56831C73.6909 6.56831 73.4947 6.56831 73.2984 6.56831C73.0637 6.56831 72.8284 6.56831 72.5936 6.56831C72.3155 6.56831 72.038 6.56831 71.7599 6.56831C71.4353 6.56831 71.1102 6.56831 70.7856 6.56831C70.4278 6.56831 70.0695 6.56831 69.7118 6.56831C69.3861 6.56831 69.1599 6.69527 69.0332 6.94405C68.9214 7.16457 68.9567 7.39742 69.0808 7.61073C70.1455 9.4391 73.1519 9.26485 75.1877 8.85826C75.438 8.8084 75.6829 8.72924 75.9134 8.63209C76.108 8.54984 76.2931 8.44756 76.4647 8.32676C76.776 8.10728 76.9904 7.95564 77.5535 7.97003C77.5658 7.97003 77.5781 7.97003 77.5904 7.97003C77.9546 7.969 78.3193 7.97003 78.6851 7.97003C79.0503 7.97003 79.2722 8.36531 79.0631 8.65368C78.3358 9.65498 77.0974 10.2975 75.8396 10.6044C72.4428 11.5111 67.8765 10.7159 66.7177 7.34139L66.7182 7.34293ZM69.0439 3.62966C68.738 4.10153 69.0915 4.65513 69.6519 4.65513C75.9829 4.65513 74.0947 4.62634 76.9252 4.62583C77.099 4.62583 77.2701 4.56106 77.384 4.43513C77.5979 4.19868 77.5749 3.84092 77.3829 3.51709C76.0615 1.28985 70.2567 1.60751 69.0439 3.62966Z" fill="white"/>
<path d="M48.2697 4.62903H49.5783C49.913 4.62903 50.1644 4.33604 50.1008 4.01992C49.9441 3.24632 49.4425 1.92067 47.8334 1.15221C46.1836 0.364218 44.2516 0.189453 42.4377 0.367303C40.7751 0.530247 39.1125 1.11314 37.9355 2.28973C37.5195 2.70557 37.2061 3.23758 36.9986 3.77627C36.3826 5.37436 36.5943 7.30912 37.6628 8.68412C37.9649 9.07324 38.328 9.41711 38.7344 9.70496C39.4537 10.2144 40.2863 10.567 41.1537 10.7654C42.035 10.9669 42.9184 10.9695 43.8168 10.9391C44.228 10.9252 44.6382 10.8924 45.0451 10.8348C46.851 10.5788 48.6029 9.81702 49.5831 8.27548C49.7874 7.95473 49.9542 7.60931 50.0596 7.24641C50.1548 6.91898 49.9018 6.59413 49.5483 6.59361H48.4163C48.1938 6.5931 47.9922 6.72468 47.9163 6.92567C47.6868 7.53067 46.9649 8.76842 44.8655 8.9951C43.258 9.16884 41.3195 9.20791 39.9548 8.22665C39.4772 7.88328 39.1136 7.41861 38.8874 6.88969C38.351 5.636 38.7131 4.07338 39.7419 3.14197C40.8542 2.13501 42.4959 2.0502 43.9376 2.12216C46.089 2.23011 47.5344 2.63464 48.0034 4.42548C48.0344 4.54422 48.1435 4.62852 48.2713 4.62852L48.2697 4.62903Z" fill="white"/>
</g>
<defs>
<clipPath id="clip0_2801_589">
<rect width="80" height="11" fill="white"/>
</clipPath>
</defs>
</svg>
